<svg id="Layer_1" data-name="Layer 1" xmlns="http://www.w3.org/2000/svg" viewBox="0 0 193.43 27.24"><defs><style>.cls-1{fill:#231f20;}</style></defs><path class="cls-1" d="M30.24,9.51A17.23,17.23,0,0,0,26.15,8a19.69,19.69,0,0,0-4.59-.52A16.24,16.24,0,0,0,14,9.19a14.44,14.44,0,0,0-5.5,5.05A12.5,12.5,0,0,0,7,17.48,12.08,12.08,0,0,0,6.49,21a12.45,12.45,0,0,0,1.07,5,14.19,14.19,0,0,0,3.08,4.41,14.82,14.82,0,0,0,5,3.21,17.16,17.16,0,0,0,6.2,1.1,19.39,19.39,0,0,0,4.44-.52,19.2,19.2,0,0,0,4.07-1.46c.1-.62.28-1.49.52-2.59a22.51,22.51,0,0,0,.42-2.25l-.64-.16a7.58,7.58,0,0,1-2.81,4.4,9.09,9.09,0,0,1-5.54,1.59,12.84,12.84,0,0,1-4.95-.92,10.5,10.5,0,0,1-3.86-2.74A12.55,12.55,0,0,1,11,25.88a15.14,15.14,0,0,1-.85-5.14A13.61,13.61,0,0,1,11,15.9a13,13,0,0,1,2.57-4.18,10.16,10.16,0,0,1,3.63-2.61,11.74,11.74,0,0,1,4.57-.86A8.65,8.65,0,0,1,27.2,10a8.51,8.51,0,0,1,3,4.55l.5-.08c0-.56-.11-1.36-.23-2.4S30.27,10.11,30.24,9.51Z" transform="translate(-6.49 -7.47)"/><path class="cls-1" d="M122.12,27.62a6.12,6.12,0,0,0-2-4.65,10.07,10.07,0,0,0-5.61-2.36l-.21,0V20l.19-.05A8.35,8.35,0,0,0,118.65,18,4.34,4.34,0,0,0,120,14.72a5.08,5.08,0,0,0-2.33-4.47,11.94,11.94,0,0,0-6.73-1.62c-.41,0-1.24,0-2.39.08s-2.18.08-2.93.08l-1.51,0H101.3v.46a7.86,7.86,0,0,1,3.32.76,2.35,2.35,0,0,1,1,2.12V29.62a10.66,10.66,0,0,1-.22,2.68,1.86,1.86,0,0,1-.82,1.08,10.26,10.26,0,0,1-3,.74l-.12,0v.56h.27c.89,0,2,0,3.34-.12s2.22-.11,2.67-.11c.65,0,1.56,0,2.71.11s2,.12,2.45.12a10.73,10.73,0,0,0,6.75-2A6.21,6.21,0,0,0,122.12,27.62ZM108.33,11.73A2.47,2.47,0,0,1,109,9.79a3.36,3.36,0,0,1,2.18-.51,5.91,5.91,0,0,1,4.26,1.5A5.49,5.49,0,0,1,117,14.89,4.81,4.81,0,0,1,115,19a8.8,8.8,0,0,1-5.35,1.41q-.25,0-.84-.06a1.42,1.42,0,0,1-.3,0l-.21,0Zm8.77,20.42a6.68,6.68,0,0,1-4.75,1.71,4.43,4.43,0,0,1-3.17-.85c-.57-.58-.85-1.68-.85-3.39V21.21l.21,0c.48-.07.95-.13,1.4-.17s.87-.05,1.26-.05a8.42,8.42,0,0,1,5.66,1.75,6.16,6.16,0,0,1,2,4.92A6,6,0,0,1,117.1,32.15Z" transform="translate(-6.49 -7.47)"/><path class="cls-1" d="M43.38,34a1.46,1.46,0,0,0,1.23.5,2.08,2.08,0,0,0,1.53-.59A3.17,3.17,0,0,0,47,32.33h0a1.86,1.86,0,0,1-.48.6,1.27,1.27,0,0,1-.81.3.93.93,0,0,1-.87-.41,2.91,2.91,0,0,1-.22-1.52V24.65a2.94,2.94,0,0,0-.86-2.31,4.69,4.69,0,0,0-2.72-1l-3.25,1.9a3.62,3.62,0,0,0-1,.83,1.39,1.39,0,0,0-.29.88,1.41,1.41,0,0,0,0,.27,1.36,1.36,0,0,0,0,.17l1.28-.73a.24.24,0,0,1,0-.08,1.22,1.22,0,0,1,0-.32,1.35,1.35,0,0,1,.73-1.15,3,3,0,0,1,1.65-.42,3.13,3.13,0,0,1,2,.61,2.2,2.2,0,0,1,.75,1.79v2.58l-1,.34c-5,1.72-5.73,2.82-5.73,3.32a4,4,0,0,0,.6,2.32,1.83,1.83,0,0,0,1.58.8,3.86,3.86,0,0,0,2-.59A9.51,9.51,0,0,0,42.52,32l.43-.51v.89A2.61,2.61,0,0,0,43.38,34Zm-.45-2.58-.07.07A8.65,8.65,0,0,1,41.17,33a2.76,2.76,0,0,1-1.48.53,1.62,1.62,0,0,1-1.35-.7,2.76,2.76,0,0,1-.5-1.67c0-.58.48-1.55,4.61-3.18l.48-.21Z" transform="translate(-6.49 -7.47)"/><path class="cls-1" d="M58.83,23.57a2.73,2.73,0,0,0,.86.23.91.91,0,0,0,.7-.27,1.15,1.15,0,0,0,.25-.8,1.1,1.1,0,0,0-.36-.86,2.07,2.07,0,0,0-2.42.14,7.66,7.66,0,0,0-1.55,1.54l-1.44,1.86V21.5c-.62.21-1.58.57-2.85,1.06l-.63.23V23l.41.19c.91.43,1.36.9,1.36,1.43v7.24a2.22,2.22,0,0,1-.46,1.64,2.08,2.08,0,0,1-1.4.43v.21h.12c.34,0,1,0,2,0,.58,0,1,0,1.19,0H56l1.23,0v-.29a3,3,0,0,1-1.84-.55,2.48,2.48,0,0,1-.56-1.89V25.68l.05-.07a11.93,11.93,0,0,1,1.59-1.77,2,2,0,0,1,1.23-.54A3.21,3.21,0,0,1,58.83,23.57Z" transform="translate(-6.49 -7.47)"/><path class="cls-1" d="M67.33,33.69a2.58,2.58,0,0,0,2.17.83,2.82,2.82,0,0,0,1.92-.71A3.9,3.9,0,0,0,72.57,32L72.44,32a2.73,2.73,0,0,1-.83,1,2.36,2.36,0,0,1-1.36.39,1.6,1.6,0,0,1-1.51-.86,5.58,5.58,0,0,1-.43-2.57v-7h3.94v-.76H68.37V20.58c0-.36,0-.63,0-.81a1.93,1.93,0,0,1,0-.24c-.56.57-1.14,1.11-1.71,1.62s-1.22,1-1.88,1.53v.24a3.59,3.59,0,0,1,1.45.25c.3.17.44.56.44,1.19v6.21A5.6,5.6,0,0,0,67.33,33.69Z" transform="translate(-6.49 -7.47)"/><path class="cls-1" d="M84.68,34a1.46,1.46,0,0,0,1.23.5,2.09,2.09,0,0,0,1.54-.59,3.09,3.09,0,0,0,.81-1.57h0a1.88,1.88,0,0,1-.49.6,1.23,1.23,0,0,1-.81.3,1,1,0,0,1-.87-.41,3.11,3.11,0,0,1-.21-1.52V24.65A2.94,2.94,0,0,0,85,22.34a4.72,4.72,0,0,0-2.73-1L79,23.28a3.68,3.68,0,0,0-1,.83,1.44,1.44,0,0,0-.28.88,1.16,1.16,0,0,0,0,.27s0,.11,0,.17l1.27-.73a.24.24,0,0,0,0-.08,1.82,1.82,0,0,1,0-.32,1.34,1.34,0,0,1,.72-1.15,3.06,3.06,0,0,1,1.65-.42,3.14,3.14,0,0,1,2.06.61,2.22,2.22,0,0,1,.74,1.79v2.58l-1,.34c-5,1.72-5.74,2.82-5.74,3.32a3.94,3.94,0,0,0,.61,2.32,1.82,1.82,0,0,0,1.57.8,3.86,3.86,0,0,0,2-.59A9.48,9.48,0,0,0,83.82,32l.44-.51v.89A2.61,2.61,0,0,0,84.68,34Zm-.45-2.58-.06.07A9,9,0,0,1,82.48,33a2.81,2.81,0,0,1-1.49.53,1.6,1.6,0,0,1-1.34-.7,2.76,2.76,0,0,1-.5-1.67c0-.58.47-1.55,4.61-3.18l.47-.21Z" transform="translate(-6.49 -7.47)"/><path class="cls-1" d="M133.9,23.57a2.73,2.73,0,0,0,.86.23.91.91,0,0,0,.7-.27,1.15,1.15,0,0,0,.25-.8,1.1,1.1,0,0,0-.36-.86,2.07,2.07,0,0,0-2.42.14,7.66,7.66,0,0,0-1.55,1.54l-1.44,1.86V21.5c-.62.21-1.58.57-2.85,1.06l-.63.23V23l.41.19c.91.43,1.36.9,1.36,1.43v7.24a2.22,2.22,0,0,1-.46,1.64,2.08,2.08,0,0,1-1.4.43v.21h.12c.34,0,1,0,2,0,.58,0,1,0,1.19,0h1.46l1.23,0v-.29a3,3,0,0,1-1.84-.55,2.48,2.48,0,0,1-.56-1.89V25.68l.05-.07a11.93,11.93,0,0,1,1.59-1.77,2,2,0,0,1,1.23-.54A3.21,3.21,0,0,1,133.9,23.57Z" transform="translate(-6.49 -7.47)"/><path class="cls-1" d="M146.94,34a1.46,1.46,0,0,0,1.23.5,2.09,2.09,0,0,0,1.54-.59,3.16,3.16,0,0,0,.81-1.57h0a1.86,1.86,0,0,1-.48.6,1.23,1.23,0,0,1-.81.3,1,1,0,0,1-.87-.41,3.11,3.11,0,0,1-.21-1.52V24.65a2.94,2.94,0,0,0-.86-2.31,4.75,4.75,0,0,0-2.73-1l-3.24,1.9a3.68,3.68,0,0,0-1,.83A1.44,1.44,0,0,0,140,25a1.16,1.16,0,0,0,0,.27,1.54,1.54,0,0,0,0,.17l1.27-.73a.24.24,0,0,0,0-.08,1.82,1.82,0,0,1,0-.32,1.34,1.34,0,0,1,.72-1.15,3.06,3.06,0,0,1,1.65-.42,3.14,3.14,0,0,1,2.06.61,2.22,2.22,0,0,1,.74,1.79v2.58l-1,.34c-5,1.72-5.74,2.82-5.74,3.32a3.87,3.87,0,0,0,.61,2.32,1.8,1.8,0,0,0,1.57.8,3.86,3.86,0,0,0,2-.59A9.48,9.48,0,0,0,146.08,32l.44-.51v.89A2.61,2.61,0,0,0,146.94,34Zm-.7-2.67a8.72,8.72,0,0,1-1.64,1.48,2.51,2.51,0,0,1-1.35.49,1.37,1.37,0,0,1-1.14-.6,2.51,2.51,0,0,1-.45-1.52q0-1.19,4.45-3l.13,0Z" transform="translate(-6.49 -7.47)"/><path class="cls-1" d="M167.59,34.09l1.26,0v-.23a2.84,2.84,0,0,1-1.45-.32,1.49,1.49,0,0,1-.5-1.28V25.47a7.14,7.14,0,0,0-.13-1.62,2.53,2.53,0,0,0-.42-.91,2.83,2.83,0,0,0-1.14-1,4.34,4.34,0,0,0-3.82.22,12.34,12.34,0,0,0-2.6,1.78l-.41.35V21.47c-.59.28-1.17.54-1.72.77s-1.09.42-1.62.59V23a3.13,3.13,0,0,1,1.27.67,1.72,1.72,0,0,1,.41,1.23v7.28a1.47,1.47,0,0,1-.5,1.24,3.7,3.7,0,0,1-1.66.49v.27l1.57-.06c1.05,0,1.87,0,3,0l1.32,0V33.9a3,3,0,0,1-1.52-.36,1.49,1.49,0,0,1-.51-1.29V24.56l.1-.08a9.26,9.26,0,0,1,2.11-1.25,5.16,5.16,0,0,1,2-.44,2.39,2.39,0,0,1,2,.82,3.56,3.56,0,0,1,.65,2.3V32a1.89,1.89,0,0,1-.51,1.57,3.13,3.13,0,0,1-1.71.36v.24l1.58-.06C165.65,34.06,166.56,34.06,167.59,34.09Z" transform="translate(-6.49 -7.47)"/><path class="cls-1" d="M183,22a4.93,4.93,0,0,0-2.65-.64,6.09,6.09,0,0,0-4.61,2,7,7,0,0,0-1.86,5,6.57,6.57,0,0,0,1.52,4.44,4.73,4.73,0,0,0,3.75,1.74,5,5,0,0,0,2.88-.93,8.79,8.79,0,0,0,2.35-2.54l-.13-.1a7.11,7.11,0,0,1-1.76,1.53,4,4,0,0,1-2.08.58,4.4,4.4,0,0,1-3.5-1.73,6.38,6.38,0,0,1-1.42-4.19,6,6,0,0,1,1.1-3.71,3.45,3.45,0,0,1,2.87-1.49,2.33,2.33,0,0,1,1.15.28,3.06,3.06,0,0,1,.94.81l.22.32c.49.66.93,1,1.31,1a.87.87,0,0,0,.66-.23.79.79,0,0,0,.23-.62A1.7,1.7,0,0,0,183,22Z" transform="translate(-6.49 -7.47)"/><path class="cls-1" d="M196.33,34a1.48,1.48,0,0,0,1.24.5,2.08,2.08,0,0,0,1.53-.59,3.09,3.09,0,0,0,.81-1.57h0a1.88,1.88,0,0,1-.49.6,1.23,1.23,0,0,1-.8.3,1,1,0,0,1-.88-.41,3.11,3.11,0,0,1-.21-1.52V24.65a2.94,2.94,0,0,0-.86-2.31,4.72,4.72,0,0,0-2.73-1l-3.24,1.9a3.68,3.68,0,0,0-1,.83,1.44,1.44,0,0,0-.28.88.88.88,0,0,0,0,.27,1.36,1.36,0,0,0,0,.17l1.28-.73,0-.08a1.82,1.82,0,0,1,0-.32,1.34,1.34,0,0,1,.72-1.15,3.06,3.06,0,0,1,1.65-.42,3.14,3.14,0,0,1,2.06.61,2.22,2.22,0,0,1,.74,1.79v2.58l-1,.34c-5,1.72-5.74,2.82-5.74,3.32a3.94,3.94,0,0,0,.61,2.32,1.82,1.82,0,0,0,1.57.8,3.86,3.86,0,0,0,2-.59A9.48,9.48,0,0,0,195.47,32l.44-.51v.89A2.61,2.61,0,0,0,196.33,34Zm-.45-2.58-.06.07A9,9,0,0,1,194.13,33a2.81,2.81,0,0,1-1.49.53,1.6,1.6,0,0,1-1.34-.7,2.76,2.76,0,0,1-.5-1.67c0-.58.47-1.55,4.61-3.18l.47-.21Z" transform="translate(-6.49 -7.47)"/></svg>