<svg id="Layer_1" data-name="Layer 1" xmlns="http://www.w3.org/2000/svg" viewBox="0 0 715.19 60.11"><defs><style>.cls-1{fill:#231f20;}</style></defs><path class="cls-1" d="M406.64,460.35l-12.26-34.72c-1.21-3.37-2.42-6.74-2.85-8.12l-.61-.43h-6l-.52.43c-.6,1.55-2.07,5.44-3.45,8.81l-13.73,33.94c-2.51,6.22-3.2,10-7.17,11.83l-2.42,1v1.9h19.69V473L373,471.4c-1.64-.51-2.59-1-2.59-2.42a16.15,16.15,0,0,1,1.21-4.66l2.77-8.38c1.38-4.06,1.89-4.06,5.52-4.06h11c2.51,0,3.11.35,4,2.77l3.88,12a10.75,10.75,0,0,1,.78,2.85c0,1-.78,1.47-2,1.9L393,473v1.9h23.15V473l-2.16-.86C409.66,470.45,409.32,468,406.64,460.35ZM390.32,448H380.13c-1.91,0-2.25-.09-2.25-1.21a3.64,3.64,0,0,1,.52-1.64l5.78-16.33c.35-.86.61-1.38,1-1.38s.69.61,1.12,2l5.27,16.06a6.77,6.77,0,0,1,.35,1.3C392,447.57,391.61,448,390.32,448Z" transform="translate(-238.16 -415.95)"/><path class="cls-1" d="M506.12,462l-9.76-14.25a3.65,3.65,0,0,1-.95-1.9c0-2.25,11.92-2,11.92-15.81,0-11.22-7.25-12.95-16.93-12.95H463.28V419c4.29,1.33,6.73,3.63,6.73,6.31V463.8c0,5.44-.09,7-2.94,7.95l-3.8,1.29v1.9h22.63V473l-3.28-1.29c-3.11-1.21-3-2.07-3-7.95V450.5c0-2.24,0-2.68,2.16-2.68h1.38c2.24,0,3,.52,5.09,3.8l12.18,20a6.42,6.42,0,0,0,5.53,3.36h10V473C512.69,470.89,510.27,468.12,506.12,462Zm-21.94-18.05c-4.23,0-4.57,0-4.57-2.77V424.24c0-2.5,0-3.28,5.44-3.28,7.86,0,12.09,3.72,12.09,12.18S491.35,443.94,484.18,443.94Z" transform="translate(-238.16 -415.95)"/><path class="cls-1" d="M829,428.82a8.26,8.26,0,0,1,8.55-8.37c9.76,0,12.78,7.42,14.08,11.83h1.55l2.76-6.65a6.18,6.18,0,0,0,.61-2.25c0-4.23-6.22-7.43-16.24-7.43s-19.43,6.48-19.43,17.36c0,19.87,28.5,10.89,28.5,28.07,0,5.62-3.28,10.2-8.89,10.2-11.41,0-13.91-9.59-15-14.26H824l-3.46,7.61a6.89,6.89,0,0,0-.69,2.85c0,4.92,9.33,8.29,16.33,8.29,13,0,22.37-7,22.37-19.09C858.54,436.08,829,443.94,829,428.82Z" transform="translate(-238.16 -415.95)"/><path class="cls-1" d="M304.75,461.73l-1-34.57c0-3.09,2-6.24,4-7.15s2.42-1,2.42-1v-1.9H294.3l-.7.6c-1,3.11-4.92,13.48-8.2,21.08L276.68,459c-.61,1.3-.78,1.91-1.3,1.91s-.78-.69-1.29-1.91l-11.92-29c-2-4.75-4.06-10.28-4.84-12.27l-.69-.6H240.92V419h0c4.21,1.31,6.6,3.54,6.6,6.16L245.33,461c-.61,9.76-.52,9.42-3.63,10.63L238.16,473v1.9h20.12V473l-4.06-1.46c-4.06-1.47-4.4-3-4.4-6.74,0-1.3,0-3.11.17-6.3l1.38-25.14c0-1.47.26-2.33.95-2.33s.87.95,1.73,3l11.23,27.81c1.55,3.72,4.4,10.54,5,12.44l.77.6h3.37l.78-.6c.52-1.3,3.45-9.07,5.18-13.13l12.44-28.85c.43-.94.77-1.29,1.21-1.29s.77.43.77,1.47l.78,33.94c0,2.16-.09,4-2.76,4.92L288.42,473v1.9h22.63V473l-2.42-1C304.06,470.11,304.92,468,304.75,461.73Z" transform="translate(-238.16 -415.95)"/><path class="cls-1" d="M591.52,419c3.64,1.13,6.2,3.41,5.73,5.35-.25,1-.8,2.08-3.48,7.69l-6.48,13.65c-.43.94-.69,1.29-1.2,1.29s-1-.61-1.64-1.9l-9.25-19.52a9.35,9.35,0,0,1-.57-1.51c-.44-1.83,2-4,5.41-5h0v-1.9H557.33V419l2.07.95c3.71,1.73,4.83,4.92,9.84,14.59l6.57,12.79c1.72,3.88,2.59,5.44,2.59,9.67v7.69c0,5.09-.17,6.22-2.94,7.08L571.23,473v1.9h24V473l-4.15-1.29c-3.19-1-3.11-1.9-3.11-7.08v-7.95c0-5.36.61-5.62,2.94-10.28l8.46-15.54c4.75-8.73,4.84-9.59,9-11.32l1.47-.6v-1.9H591.52Z" transform="translate(-238.16 -415.95)"/><path class="cls-1" d="M764.15,424.52c0-2.69,1.71-4,6.73-5.54h0v-1.9h-23V419h0c4.29,1.33,6.73,2.51,6.73,5v40.69c0,4.83,0,6.13-2.94,7.08l-3.8,1.29v1.9h23.06V473l-3.8-1.29c-3-.95-2.93-2.16-2.93-7.08Z" transform="translate(-238.16 -415.95)"/><path class="cls-1" d="M907.66,417.08V419c4.3,1.33,6.74,3.63,6.74,6.31v39.38c0,4.92,0,6-2.94,7.08l-3.8,1.29v1.9h45l.69-.69V458.79h-2.9c0,.17-.05.32-.09.49a16.83,16.83,0,0,1-5.83,9.54c-1.89,1.61-4.65,2.24-9.92,2.24-10.62,0-10.62-1.56-10.62-5.7V449.9c0-3.2.08-3.63,3.37-3.63h6.21c3.46,0,3.46.52,5.27,4.23l1.39,3.11h1.9V435.13h-1.9l-1.39,3.19c-1.64,3.46-1.81,4.06-5.18,4.06h-6c-3.37,0-3.63-.08-3.63-3V425.28c0-3.88.84-4.34,9.74-4.34,4.83,0,7.35.57,9.08,2a15.43,15.43,0,0,1,5.2,8.21h2.88V417.71l-.63-.63Z" transform="translate(-238.16 -415.95)"/><path class="cls-1" d="M700.42,474.94l.69-.69V458.79h-2.9c0,.17-.05.32-.09.49a16.94,16.94,0,0,1-5.83,9.54c-1.85,1.57-4.55,2.21-9.57,2.24h0c-9.68,0-9.68-2.25-9.68-7.77V424.52c0-2.69,1.72-4,6.74-5.54h0v-1.9h-23V419h0c4.29,1.33,6.73,2.51,6.73,5V463.8c0,5.44,0,7-2.93,7.95l-3.8,1.29v1.9Z" transform="translate(-238.16 -415.95)"/></svg>